<mxfile host="app.diagrams.net" modified="2021-09-27T03:12:16.602Z" agent="5.0 (Windows NT 10.0; Win64; x64) AppleWebKit/537.36 (KHTML, like Gecko) Chrome/94.0.4606.61 Safari/537.36 Edg/94.0.992.31" etag="OUOS6DwwoRzt1CVmkv_y" version="14.7.3" type="github">
  <diagram id="8KDyrTW3fwZqZ1h48vpO" name="第 1 页">
    <mxGraphModel dx="734" dy="468" grid="1" gridSize="10" guides="1" tooltips="1" connect="1" arrows="1" fold="1" page="1" pageScale="1" pageWidth="827" pageHeight="1169" math="0" shadow="0">
      <root>
        <mxCell id="0" />
        <mxCell id="1" parent="0" />
        <mxCell id="MJI4oNntE4JqmDesNUdv-3" value="" style="ellipse;whiteSpace=wrap;html=1;aspect=fixed;fillColor=none;" vertex="1" parent="1">
          <mxGeometry x="400" y="130" width="160" height="160" as="geometry" />
        </mxCell>
        <mxCell id="MJI4oNntE4JqmDesNUdv-4" value="" style="ellipse;whiteSpace=wrap;html=1;aspect=fixed;fillColor=none;" vertex="1" parent="1">
          <mxGeometry x="390" y="40" width="160" height="160" as="geometry" />
        </mxCell>
        <mxCell id="MJI4oNntE4JqmDesNUdv-5" value="" style="ellipse;whiteSpace=wrap;html=1;aspect=fixed;fillColor=none;" vertex="1" parent="1">
          <mxGeometry x="470" y="80" width="160" height="160" as="geometry" />
        </mxCell>
      </root>
    </mxGraphModel>
  </diagram>
</mxfile>
